<svg id="SvgjsSvg1026" width="288" height="288" xmlns="http://www.w3.org/2000/svg" version="1.1" xmlns:xlink="http://www.w3.org/1999/xlink" xmlns:svgjs="http://svgjs.com/svgjs"><defs id="SvgjsDefs1027"></defs><g id="SvgjsG1028"><svg xmlns="http://www.w3.org/2000/svg" viewBox="-17 0 487 487.162" width="288" height="288"><path d="M81.02 180.754c20.535-.027 37.175-16.668 37.195-37.203v-12.074c0-20.543-16.653-37.196-37.195-37.196-20.54 0-37.192 16.653-37.192 37.196v12.082c.024 20.53 16.66 37.168 37.192 37.195zm-23.192-49.277a23.196 23.196 0 1 1 46.387 0v12.082a23.204 23.204 0 0 1-11.453 20.492 23.215 23.215 0 0 1-23.48 0 23.204 23.204 0 0 1-11.454-20.492zm0 0" fill="#4a7c8a" class="svgShape color000000-0 selectable"></path><path d="M125.707 179.977h-15.902c-1.782 0-3.493.68-4.79 1.902l-22.85 21.441-21.95-21.36a7.011 7.011 0 0 0-4.883-1.98H38.457a38.348 38.348 0 0 0-28.344 12.504 38.354 38.354 0 0 0-9.87 29.364v92.48c.003 13.059 10.585 23.645 23.644 23.649h.277a23.06 23.06 0 0 0 10.879-2.872l4.02 127.903a25.038 25.038 0 0 0 43.102 16.438 25.04 25.04 0 0 0 27.015 6.066 25.043 25.043 0 0 0 16.082-22.54l4.015-127.679a23.67 23.67 0 0 0 23.223-.738 23.675 23.675 0 0 0 11.414-20.242v-92.461a38.375 38.375 0 0 0-38.207-41.875zm-25.492 293.175c-6.106-.004-11.05-4.953-11.059-11.054v-126.41a7.001 7.001 0 0 0-14 0v126.41c-.039 5.992-4.847 10.859-10.84 10.976-5.988.117-10.984-4.558-11.257-10.543l-4.688-148.93h67.574l-4.68 148.903c-.199 5.953-5.093 10.672-11.05 10.648zm49.734-252.347c-.027.234-.039.472-.039.707v92.8c0 5.34-4.328 9.672-9.668 9.672-5.344 0-9.672-4.332-9.672-9.671v-20.387l.094-3.012a6.92 6.92 0 0 0-.094-1.39v-37.329a7.001 7.001 0 0 0-14 0v41.508l-.187 5.902h-68.45l-.288-9.128a7.056 7.056 0 0 0-.094-.907v-37.375a7.001 7.001 0 0 0-14 0v61.664c.105 5.41-4.137 9.91-9.543 10.121a9.468 9.468 0 0 1-6.938-2.828 9.585 9.585 0 0 1-2.828-6.824v-92.816c0-.235-.015-.473-.039-.707a24.379 24.379 0 0 1 24.254-26.828h14.027l24.676 24a6.998 6.998 0 0 0 9.707.125l25.711-24.125h13.129c6.89 0 13.457 2.918 18.078 8.03a24.38 24.38 0 0 1 6.164 18.798zm219.746-40.051c20.535-.024 37.176-16.664 37.2-37.203v-12.074c0-20.543-16.653-37.196-37.196-37.196s-37.195 16.653-37.195 37.196v12.082c.023 20.527 16.66 37.168 37.191 37.195zM346.5 131.477c.262-12.622 10.566-22.72 23.195-22.72 12.625 0 22.93 10.098 23.192 22.72v12.082c0 12.808-10.383 23.195-23.192 23.195-12.812 0-23.195-10.387-23.195-23.195zm0 0" fill="#4a7c8a" class="svgShape color000000-1 selectable"></path><path d="M414.379 179.977h-15.902c-1.778 0-3.493.68-4.79 1.902l-22.851 21.441-21.957-21.355a6.998 6.998 0 0 0-4.883-1.985H327.13a38.385 38.385 0 0 0-28.348 12.504 38.393 38.393 0 0 0-9.87 29.368v92.48c.007 13.059 10.589 23.64 23.648 23.645h.277a23.048 23.048 0 0 0 10.879-2.872l4.02 127.903a25.04 25.04 0 0 0 16.1 22.508 25.031 25.031 0 0 0 27-6.07 25.04 25.04 0 0 0 27.017 6.066 25.037 25.037 0 0 0 16.082-22.54l4.015-127.679a23.677 23.677 0 0 0 34.64-20.977v-92.468a38.373 38.373 0 0 0-38.21-41.871zm-25.492 293.175c-6.102-.004-11.047-4.953-11.055-11.054v-126.41c0-3.868-3.133-7-7-7s-7 3.132-7 7v126.41c-.043 5.992-4.848 10.859-10.84 10.976-5.988.117-10.984-4.558-11.258-10.543l-4.683-148.93h67.574l-4.684 148.903a11.016 11.016 0 0 1-11.054 10.648zm49.734-252.347a7.14 7.14 0 0 0-.035.707v92.8c0 5.34-4.332 9.672-9.672 9.672-5.34 0-9.672-4.332-9.672-9.671v-20.387l.102-3.012c.011-.465-.02-.93-.102-1.39v-37.329a7.001 7.001 0 0 0-14 0v41.508l-.183 5.902h-68.457l-.29-9.128a7.116 7.116 0 0 0-.093-.91v-37.372c0-3.867-3.133-7-7-7s-7 3.133-7 7v61.664c.105 5.41-4.137 9.91-9.543 10.121a9.668 9.668 0 0 1-6.899-2.789 9.644 9.644 0 0 1-2.867-6.863v-92.816c0-.235-.015-.473-.039-.707a24.379 24.379 0 0 1 24.258-26.828h14.027l24.676 24a6.998 6.998 0 0 0 9.707.125l25.707-24.125h13.129c6.89 0 13.457 2.918 18.078 8.03a24.367 24.367 0 0 1 6.168 18.798zM309.688 126.39a7.005 7.005 0 0 0 7.277.539 7 7 0 0 0 3.8-6.23V7c0-3.867-3.132-7-7-7h-127.23c-3.867 0-7 3.133-7 7v16.738h-40.472c-3.868 0-7 3.133-7 7v113.7a6.995 6.995 0 0 0 3.8 6.226 7.004 7.004 0 0 0 7.278-.535l28.316-20.293h94.836c3.867 0 7-3.133 7-7v-16.734h8.078zM193.534 14h113.23v93.078L287.7 93.414a7.017 7.017 0 0 0-4.078-1.312h-15.766a6.92 6.92 0 0 0-3.125 0h-71.195zm65.758 101.836h-90.086a7 7 0 0 0-4.078 1.312l-19.07 13.66v-93.07h33.476v61.364c0 3.863 3.133 7 7 7h72.758zm0 0" fill="#4a7c8a" class="svgShape color000000-2 selectable"></path><path d="M209.797 39.16h26.11a7.001 7.001 0 0 0 0-14h-26.11a7.001 7.001 0 0 0 0 14zm80.707 40.356c3.867 0 7-3.133 7-7s-3.133-7-7-7h-80.707c-3.867 0-7 3.132-7 7s3.133 7 7 7zm-80.707-21.364h80.707a7.001 7.001 0 0 0 0-14h-80.707a7.001 7.001 0 0 0 0 14zm0 0" fill="#4a7c8a" class="svgShape color000000-3 selectable"></path></svg></g></svg>