<svg id="SvgjsSvg1011" width="288" height="288" xmlns="http://www.w3.org/2000/svg" version="1.1" xmlns:xlink="http://www.w3.org/1999/xlink" xmlns:svgjs="http://svgjs.com/svgjs"><defs id="SvgjsDefs1012"></defs><g id="SvgjsG1013"><svg xmlns="http://www.w3.org/2000/svg" viewBox="0 0 64 64" width="288" height="288"><path d="M55.73 57.21H49.86L49.07 42a9.21 9.21 0 00-6.13-8.22l-6.23-2.22c-2.11-.92-3-1.89-3.26-3.77A6.89 6.89 0 0036 23.39a.58.58 0 01.3-.38 4.49 4.49 0 001.86-5.88A9.64 9.64 0 0037 9.33a2.43 2.43 0 00.06-1.51 2.4 2.4 0 00-1.49-1.61c-8.07-2.93-11.92-.38-13.21.85a.6.6 0 01-.29.12c-4.56.69-4 8.26-3.84 9.89A4.85 4.85 0 0020.4 23a.61.61 0 01.3.38 6.86 6.86 0 002.16 4.14c-.31 2.3-1.37 3.2-3.24 4l-6.3 2.25A9.23 9.23 0 007.19 42L6.4 57.21H1a1 1 0 100 1.94H55.73a1 1 0 000-1.94zM22.36 9.09a2.44 2.44 0 001.35-.64A7.14 7.14 0 0128.79 6.8 18 18 0 0134.9 8a.44.44 0 01.29.32.49.49 0 01-.08.44 1 1 0 000 1.19 8.06 8.06 0 011.47 4.83c-1.11-1.31-2.79-2.79-4.68-2.72a2.85 2.85 0 00-.4 0l-.83.14a6.23 6.23 0 01-3.32 0 4.9 4.9 0 00-5.47 2 4.54 4.54 0 01-1.78 1.57C20 13.41 20.24 9.42 22.36 9.09zm.25 14a2.47 2.47 0 00-1.28-1.8A2.84 2.84 0 0120 17.94a6.47 6.47 0 003.47-2.58 3 3 0 013.32-1.24 8 8 0 004.2.06L31.8 14H32c1.7-.07 3.66 2.62 4.25 3.62.12.25 1.14 2.54-.91 3.66A2.47 2.47 0 0034 23.11c-.23 1.55-1.28 4.19-5.71 4.44a6.89 6.89 0 01-3.85-1.22.88.88 0 00-.15-.12A4.87 4.87 0 0122.61 23.11zm5.66 6.38h.1a10.33 10.33 0 003.31-.68A6 6 0 0033 31.37a6.08 6.08 0 01-4.87 2.36 6.49 6.49 0 01-4.94-2.25 6 6 0 001.45-2.81A9.79 9.79 0 0028.27 29.49zM9.13 42.13A7.26 7.26 0 0114 35.63l6.36-2.28a11.48 11.48 0 001.31-.67 8.48 8.48 0 006.46 3h.06a7.79 7.79 0 006.32-3.07 12.59 12.59 0 001.51.78l6.3 2.25a7.29 7.29 0 014.85 6.49l.78 15.09H44.44l.94-17.43a2.18 2.18 0 00-.59-1.61 2.23 2.23 0 00-1.6-.68H13.07a2.19 2.19 0 00-2.19 2.29l.94 17.43H8.34zm4.63 15.08l-.94-17.54a.22.22 0 01.06-.16.26.26 0 01.19-.08H43.19a.26.26 0 01.19.08.18.18 0 01.06.16L42.5 57.21zM43.73 13.58a1 1 0 00-.94 1 1 1 0 001 .95c10-.29 17.33 7 18.28 18a1 1 0 001 .88h.08a1 1 0 00.89-1C63 21.43 54.59 13.3 43.73 13.58z" fill="#4a7c8a" class="svgShape color000000-0 selectable"></path><path d="M43.4 19.89a1 1 0 00-.94 1 1 1 0 001 .94C50 21.63 55 26.61 55.31 33.75a1 1 0 001 .93h0a1 1 0 00.93-1C56.9 25.41 51.06 19.59 43.4 19.89zM48.34 33.49a1 1 0 001 .93h0a1 1 0 00.93-1c-.17-4.1-2.91-6.78-6.76-6.7a1 1 0 00-1 1 1 1 0 001 .95C46.34 28.57 48.22 30.49 48.34 33.49zM28.13 44.33a4 4 0 104 4A4 4 0 0028.13 44.33zm0 6a2 2 0 112.05-2A2.05 2.05 0 0128.13 50.37z" fill="#4a7c8a" class="svgShape color000000-1 selectable"></path></svg></g></svg>